<mxfile host="app.diagrams.net" agent="Mozilla/5.0 (Windows NT 10.0; Win64; x64) AppleWebKit/537.36 (KHTML, like Gecko) Chrome/131.0.0.0 Safari/537.36 Edg/131.0.0.0" version="24.8.6">
  <diagram name="Page-1" id="Urd6x_XcgnzDMBnG25KV">
    <mxGraphModel dx="1554" dy="873" grid="1" gridSize="10" guides="1" tooltips="1" connect="1" arrows="1" fold="1" page="1" pageScale="1" pageWidth="850" pageHeight="1100" math="0" shadow="0">
      <root>
        <mxCell id="0" />
        <mxCell id="1" parent="0" />
        <mxCell id="_635ydZ9w7cTZFeYqnQr-13" style="edgeStyle=orthogonalEdgeStyle;rounded=0;orthogonalLoop=1;jettySize=auto;html=1;" edge="1" parent="1" source="_635ydZ9w7cTZFeYqnQr-1" target="_635ydZ9w7cTZFeYqnQr-7">
          <mxGeometry relative="1" as="geometry" />
        </mxCell>
        <mxCell id="_635ydZ9w7cTZFeYqnQr-1" value="MainApp" style="rounded=0;whiteSpace=wrap;html=1;" vertex="1" parent="1">
          <mxGeometry x="300" y="50" width="120" height="60" as="geometry" />
        </mxCell>
        <mxCell id="_635ydZ9w7cTZFeYqnQr-2" value="Workplace" style="rounded=0;whiteSpace=wrap;html=1;" vertex="1" parent="1">
          <mxGeometry x="470" y="200" width="120" height="60" as="geometry" />
        </mxCell>
        <mxCell id="_635ydZ9w7cTZFeYqnQr-3" value="Water" style="rounded=0;whiteSpace=wrap;html=1;" vertex="1" parent="1">
          <mxGeometry x="390" y="340" width="120" height="60" as="geometry" />
        </mxCell>
        <mxCell id="_635ydZ9w7cTZFeYqnQr-4" value="Gas" style="rounded=0;whiteSpace=wrap;html=1;" vertex="1" parent="1">
          <mxGeometry x="530" y="340" width="120" height="60" as="geometry" />
        </mxCell>
        <mxCell id="_635ydZ9w7cTZFeYqnQr-5" value="Electricity&amp;nbsp;" style="rounded=0;whiteSpace=wrap;html=1;" vertex="1" parent="1">
          <mxGeometry x="670" y="340" width="120" height="60" as="geometry" />
        </mxCell>
        <mxCell id="_635ydZ9w7cTZFeYqnQr-6" value="Log-in" style="rounded=0;whiteSpace=wrap;html=1;" vertex="1" parent="1">
          <mxGeometry x="300" y="200" width="120" height="60" as="geometry" />
        </mxCell>
        <mxCell id="_635ydZ9w7cTZFeYqnQr-7" value="" style="strokeWidth=2;html=1;shape=mxgraph.flowchart.annotation_1;align=left;pointerEvents=1;rotation=90;" vertex="1" parent="1">
          <mxGeometry x="335" y="-55" width="50" height="550" as="geometry" />
        </mxCell>
        <mxCell id="_635ydZ9w7cTZFeYqnQr-8" value="Main nav" style="text;html=1;align=center;verticalAlign=middle;whiteSpace=wrap;rounded=0;" vertex="1" parent="1">
          <mxGeometry x="400" y="170" width="60" height="30" as="geometry" />
        </mxCell>
        <mxCell id="_635ydZ9w7cTZFeYqnQr-9" value="" style="strokeWidth=2;html=1;shape=mxgraph.flowchart.annotation_1;align=left;pointerEvents=1;rotation=90;" vertex="1" parent="1">
          <mxGeometry x="570" y="130" width="40" height="430" as="geometry" />
        </mxCell>
        <mxCell id="_635ydZ9w7cTZFeYqnQr-10" value="Workplace nav" style="text;html=1;align=center;verticalAlign=middle;whiteSpace=wrap;rounded=0;" vertex="1" parent="1">
          <mxGeometry x="610" y="280" width="90" height="30" as="geometry" />
        </mxCell>
        <mxCell id="_635ydZ9w7cTZFeYqnQr-11" style="edgeStyle=orthogonalEdgeStyle;rounded=0;orthogonalLoop=1;jettySize=auto;html=1;entryX=0;entryY=0.5;entryDx=0;entryDy=0;entryPerimeter=0;" edge="1" parent="1" source="_635ydZ9w7cTZFeYqnQr-2" target="_635ydZ9w7cTZFeYqnQr-9">
          <mxGeometry relative="1" as="geometry" />
        </mxCell>
        <mxCell id="_635ydZ9w7cTZFeYqnQr-12" value="Home" style="rounded=0;whiteSpace=wrap;html=1;" vertex="1" parent="1">
          <mxGeometry x="130" y="200" width="120" height="60" as="geometry" />
        </mxCell>
      </root>
    </mxGraphModel>
  </diagram>
</mxfile>
